solid OpenSCAD_Model
  facet normal -1 0 0
    outer loop
      vertex -20 5 27
      vertex -20 5 33
      vertex -20 8 27
    endloop
  endfacet
  facet normal -1 0 0
    outer loop
      vertex -20 8 27
      vertex -20 5 33
      vertex -20 8 33
    endloop
  endfacet
  facet normal 0 -1 0
    outer loop
      vertex -20 5 33
      vertex -20 5 27
      vertex -17 5 27
    endloop
  endfacet
  facet normal 0 -1 0
    outer loop
      vertex 0 5 30
      vertex -20 5 33
      vertex -17 5 30
    endloop
  endfacet
  facet normal 0 -1 0
    outer loop
      vertex -17 5 30
      vertex -20 5 33
      vertex -17 5 27
    endloop
  endfacet
  facet normal 0 -1 0
    outer loop
      vertex 0 5 33
      vertex -20 5 33
      vertex 0 5 30
    endloop
  endfacet
  facet normal 0 0 -1
    outer loop
      vertex -20 5 27
      vertex -20 8 27
      vertex -17 5 27
    endloop
  endfacet
  facet normal 0 0 -1
    outer loop
      vertex -17 5 27
      vertex -20 8 27
      vertex -17 8 27
    endloop
  endfacet
  facet normal 0 1 0
    outer loop
      vertex -20 8 27
      vertex -20 8 33
      vertex -17 8 27
    endloop
  endfacet
  facet normal 0 1 0
    outer loop
      vertex -17 8 30
      vertex -20 8 33
      vertex 136 8 33
    endloop
  endfacet
  facet normal 0 1 0
    outer loop
      vertex 133 8 27
      vertex 136 8 33
      vertex 136 8 27
    endloop
  endfacet
  facet normal 0 1 0
    outer loop
      vertex 133 8 30
      vertex 136 8 33
      vertex 133 8 27
    endloop
  endfacet
  facet normal 0 1 0
    outer loop
      vertex -17 8 27
      vertex -20 8 33
      vertex -17 8 30
    endloop
  endfacet
  facet normal 0 1 0
    outer loop
      vertex -17 8 30
      vertex 136 8 33
      vertex 133 8 30
    endloop
  endfacet
  facet normal 0 0 1
    outer loop
      vertex -20 8 33
      vertex -20 5 33
      vertex 0 5 33
    endloop
  endfacet
  facet normal 0 0 1
    outer loop
      vertex 116 6 33
      vertex -20 8 33
      vertex 0 6 33
    endloop
  endfacet
  facet normal 0 0 1
    outer loop
      vertex 0 6 33
      vertex -20 8 33
      vertex 0 5 33
    endloop
  endfacet
  facet normal 0 0 1
    outer loop
      vertex 136 8 33
      vertex -20 8 33
      vertex 116 6 33
    endloop
  endfacet
  facet normal 0 0 1
    outer loop
      vertex 136 5 33
      vertex 116 6 33
      vertex 116 5 33
    endloop
  endfacet
  facet normal 0 0 1
    outer loop
      vertex 136 8 33
      vertex 116 6 33
      vertex 136 5 33
    endloop
  endfacet
  facet normal -1 0 0
    outer loop
      vertex 0 -2 0
      vertex 0 -2 66
      vertex 0 0 0
    endloop
  endfacet
  facet normal -1 0 0
    outer loop
      vertex 0 4 64
      vertex 0 -2 66
      vertex 0 6 66
    endloop
  endfacet
  facet normal -1 0 0
    outer loop
      vertex 0 5 33
      vertex 0 6 66
      vertex 0 6 33
    endloop
  endfacet
  facet normal -1 0 0
    outer loop
      vertex 0 4 64
      vertex 0 5 33
      vertex 0 5 30
    endloop
  endfacet
  facet normal -1 0 0
    outer loop
      vertex 0 4 64
      vertex 0 6 66
      vertex 0 5 33
    endloop
  endfacet
  facet normal -1 0 0
    outer loop
      vertex 0 4 0
      vertex 0 6 30
      vertex 0 6 0
    endloop
  endfacet
  facet normal -1 0 0
    outer loop
      vertex 0 0 64
      vertex 0 -2 66
      vertex 0 4 64
    endloop
  endfacet
  facet normal -1 0 0
    outer loop
      vertex 0 0 0
      vertex 0 -2 66
      vertex 0 0 64
    endloop
  endfacet
  facet normal -1 0 0
    outer loop
      vertex 0 5 30
      vertex 0 6 30
      vertex 0 4 0
    endloop
  endfacet
  facet normal -1 0 0
    outer loop
      vertex 0 4 64
      vertex 0 5 30
      vertex 0 4 0
    endloop
  endfacet
  facet normal 0 0 -1
    outer loop
      vertex -17 5 30
      vertex -17 8 30
      vertex 0 5 30
    endloop
  endfacet
  facet normal 0 0 -1
    outer loop
      vertex 0 6 30
      vertex -17 8 30
      vertex 133 8 30
    endloop
  endfacet
  facet normal 0 0 -1
    outer loop
      vertex 116 5 30
      vertex 133 8 30
      vertex 133 5 30
    endloop
  endfacet
  facet normal 0 0 -1
    outer loop
      vertex 116 6 30
      vertex 133 8 30
      vertex 116 5 30
    endloop
  endfacet
  facet normal 0 0 -1
    outer loop
      vertex 0 5 30
      vertex -17 8 30
      vertex 0 6 30
    endloop
  endfacet
  facet normal 0 0 -1
    outer loop
      vertex 0 6 30
      vertex 133 8 30
      vertex 116 6 30
    endloop
  endfacet
  facet normal 1 0 0
    outer loop
      vertex -17 5 30
      vertex -17 5 27
      vertex -17 8 27
    endloop
  endfacet
  facet normal 1 0 0
    outer loop
      vertex -17 8 30
      vertex -17 5 30
      vertex -17 8 27
    endloop
  endfacet
  facet normal -1 0 0
    outer loop
      vertex 133 5 27
      vertex 133 5 30
      vertex 133 8 27
    endloop
  endfacet
  facet normal -1 0 0
    outer loop
      vertex 133 8 27
      vertex 133 5 30
      vertex 133 8 30
    endloop
  endfacet
  facet normal 0 0 -1
    outer loop
      vertex 133 5 27
      vertex 133 8 27
      vertex 136 5 27
    endloop
  endfacet
  facet normal 0 0 -1
    outer loop
      vertex 136 5 27
      vertex 133 8 27
      vertex 136 8 27
    endloop
  endfacet
  facet normal 1 0 0
    outer loop
      vertex 136 5 33
      vertex 136 5 27
      vertex 136 8 27
    endloop
  endfacet
  facet normal 1 0 0
    outer loop
      vertex 136 8 33
      vertex 136 5 33
      vertex 136 8 27
    endloop
  endfacet
  facet normal 0 -1 0
    outer loop
      vertex 116 5 33
      vertex 116 5 30
      vertex 133 5 30
    endloop
  endfacet
  facet normal 0 -1 0
    outer loop
      vertex 136 5 33
      vertex 116 5 33
      vertex 133 5 30
    endloop
  endfacet
  facet normal 0 -1 0
    outer loop
      vertex 133 5 27
      vertex 136 5 27
      vertex 133 5 30
    endloop
  endfacet
  facet normal 0 -1 0
    outer loop
      vertex 136 5 27
      vertex 136 5 33
      vertex 133 5 30
    endloop
  endfacet
  facet normal 1 0 0
    outer loop
      vertex 116 -2 66
      vertex 116 -2 0
      vertex 116 6 0
    endloop
  endfacet
  facet normal 1 0 0
    outer loop
      vertex 116 5 30
      vertex 116 -2 66
      vertex 116 6 0
    endloop
  endfacet
  facet normal 1 0 0
    outer loop
      vertex 116 6 30
      vertex 116 5 30
      vertex 116 6 0
    endloop
  endfacet
  facet normal 1 0 0
    outer loop
      vertex 116 5 33
      vertex 116 -2 66
      vertex 116 5 30
    endloop
  endfacet
  facet normal 1 0 0
    outer loop
      vertex 116 6 66
      vertex 116 -2 66
      vertex 116 6 33
    endloop
  endfacet
  facet normal 1 0 0
    outer loop
      vertex 116 5 33
      vertex 116 6 33
      vertex 116 -2 66
    endloop
  endfacet
  facet normal 0 1 0
    outer loop
      vertex 0 6 33
      vertex 0 6 66
      vertex 116 6 33
    endloop
  endfacet
  facet normal 0 1 0
    outer loop
      vertex 116 6 33
      vertex 0 6 66
      vertex 116 6 66
    endloop
  endfacet
  facet normal 0 0 -1
    outer loop
      vertex 0 -2 0
      vertex 0 0 0
      vertex 116 -2 0
    endloop
  endfacet
  facet normal 0 0 -1
    outer loop
      vertex 116 -2 0
      vertex 0 0 0
      vertex 2 0 0
    endloop
  endfacet
  facet normal 0 0 -1
    outer loop
      vertex 116 -2 0
      vertex 2 0 0
      vertex 2 4 0
    endloop
  endfacet
  facet normal 0 0 -1
    outer loop
      vertex 2 4 0
      vertex 0 4 0
      vertex 0 6 0
    endloop
  endfacet
  facet normal 0 0 -1
    outer loop
      vertex 2 4 0
      vertex 0 6 0
      vertex 116 -2 0
    endloop
  endfacet
  facet normal 0 0 -1
    outer loop
      vertex 116 -2 0
      vertex 0 6 0
      vertex 116 6 0
    endloop
  endfacet
  facet normal 0 1 0
    outer loop
      vertex 0 0 0
      vertex 0 0 64
      vertex 2 0 0
    endloop
  endfacet
  facet normal 0 1 0
    outer loop
      vertex 4 0 62
      vertex 0 0 64
      vertex 114 0 64
    endloop
  endfacet
  facet normal 0 1 0
    outer loop
      vertex 112 0 4
      vertex 114 0 64
      vertex 114 0 2
    endloop
  endfacet
  facet normal 0 1 0
    outer loop
      vertex 2 0 0
      vertex 0 0 64
      vertex 2 0 2
    endloop
  endfacet
  facet normal 0 1 0
    outer loop
      vertex 4 0 62
      vertex 114 0 64
      vertex 112 0 62
    endloop
  endfacet
  facet normal 0 1 0
    outer loop
      vertex 2 0 2
      vertex 0 0 64
      vertex 4 0 62
    endloop
  endfacet
  facet normal 0 1 0
    outer loop
      vertex 112 0 4
      vertex 2 0 2
      vertex 4 0 4
    endloop
  endfacet
  facet normal 0 1 0
    outer loop
      vertex 2 0 2
      vertex 4 0 62
      vertex 4 0 4
    endloop
  endfacet
  facet normal 0 1 0
    outer loop
      vertex 112 0 62
      vertex 114 0 64
      vertex 112 0 4
    endloop
  endfacet
  facet normal 0 1 0
    outer loop
      vertex 2 0 2
      vertex 112 0 4
      vertex 114 0 2
    endloop
  endfacet
  facet normal 0 0 -1
    outer loop
      vertex 114 4 64
      vertex 114 0 64
      vertex 0 4 64
    endloop
  endfacet
  facet normal 0 0 -1
    outer loop
      vertex 0 4 64
      vertex 114 0 64
      vertex 0 0 64
    endloop
  endfacet
  facet normal 0 -1 0
    outer loop
      vertex 114 4 64
      vertex 2 4 2
      vertex 114 4 2
    endloop
  endfacet
  facet normal 0 -1 0
    outer loop
      vertex 0 4 64
      vertex 2 4 2
      vertex 114 4 64
    endloop
  endfacet
  facet normal 0 -1 0
    outer loop
      vertex 2 4 0
      vertex 2 4 2
      vertex 0 4 64
    endloop
  endfacet
  facet normal 0 -1 0
    outer loop
      vertex 0 4 0
      vertex 2 4 0
      vertex 0 4 64
    endloop
  endfacet
  facet normal 0 1 0
    outer loop
      vertex 0 6 0
      vertex 0 6 30
      vertex 116 6 0
    endloop
  endfacet
  facet normal 0 1 0
    outer loop
      vertex 116 6 0
      vertex 0 6 30
      vertex 116 6 30
    endloop
  endfacet
  facet normal 0 0 1
    outer loop
      vertex 0 6 66
      vertex 0 -2 66
      vertex 116 -2 66
    endloop
  endfacet
  facet normal 0 0 1
    outer loop
      vertex 116 6 66
      vertex 0 6 66
      vertex 116 -2 66
    endloop
  endfacet
  facet normal 0 -1 0
    outer loop
      vertex 4 -2 4
      vertex 0 -2 0
      vertex 116 -2 0
    endloop
  endfacet
  facet normal 0 -1 0
    outer loop
      vertex 0 -2 66
      vertex 0 -2 0
      vertex 4 -2 4
    endloop
  endfacet
  facet normal 0 -1 0
    outer loop
      vertex 4 -2 62
      vertex 112 -2 62
      vertex 0 -2 66
    endloop
  endfacet
  facet normal 0 -1 0
    outer loop
      vertex 0 -2 66
      vertex 4 -2 4
      vertex 4 -2 62
    endloop
  endfacet
  facet normal 0 -1 0
    outer loop
      vertex 116 -2 66
      vertex 112 -2 62
      vertex 116 -2 0
    endloop
  endfacet
  facet normal 0 -1 0
    outer loop
      vertex 116 -2 66
      vertex 0 -2 66
      vertex 112 -2 62
    endloop
  endfacet
  facet normal 0 -1 0
    outer loop
      vertex 112 -2 62
      vertex 112 -2 4
      vertex 116 -2 0
    endloop
  endfacet
  facet normal 0 -1 0
    outer loop
      vertex 112 -2 4
      vertex 4 -2 4
      vertex 116 -2 0
    endloop
  endfacet
  facet normal -1 0 0
    outer loop
      vertex 2 0 0
      vertex 2 0 2
      vertex 2 4 0
    endloop
  endfacet
  facet normal -1 0 0
    outer loop
      vertex 2 4 0
      vertex 2 0 2
      vertex 2 4 2
    endloop
  endfacet
  facet normal 0 0 1
    outer loop
      vertex 114 0 2
      vertex 114 4 2
      vertex 2 4 2
    endloop
  endfacet
  facet normal 0 0 1
    outer loop
      vertex 2 0 2
      vertex 114 0 2
      vertex 2 4 2
    endloop
  endfacet
  facet normal -1 0 0
    outer loop
      vertex 114 4 64
      vertex 114 4 2
      vertex 114 0 64
    endloop
  endfacet
  facet normal -1 0 0
    outer loop
      vertex 114 0 64
      vertex 114 4 2
      vertex 114 0 2
    endloop
  endfacet
  facet normal 0 0 -1
    outer loop
      vertex 112 0 62
      vertex 112 -2 62
      vertex 4 0 62
    endloop
  endfacet
  facet normal 0 0 -1
    outer loop
      vertex 4 0 62
      vertex 112 -2 62
      vertex 4 -2 62
    endloop
  endfacet
  facet normal 1 0 0
    outer loop
      vertex 4 0 4
      vertex 4 0 62
      vertex 4 -2 62
    endloop
  endfacet
  facet normal 1 0 0
    outer loop
      vertex 4 -2 4
      vertex 4 0 4
      vertex 4 -2 62
    endloop
  endfacet
  facet normal -1 0 0
    outer loop
      vertex 112 0 62
      vertex 112 0 4
      vertex 112 -2 62
    endloop
  endfacet
  facet normal -1 0 0
    outer loop
      vertex 112 -2 62
      vertex 112 0 4
      vertex 112 -2 4
    endloop
  endfacet
  facet normal 0 0 1
    outer loop
      vertex 112 -2 4
      vertex 112 0 4
      vertex 4 0 4
    endloop
  endfacet
  facet normal 0 0 1
    outer loop
      vertex 4 -2 4
      vertex 112 -2 4
      vertex 4 0 4
    endloop
  endfacet
endsolid OpenSCAD_Model
